<svg id="blackjack_x5F_game" enable-background="new 0 0 300 300" height="512" viewBox="0 0 300 300" width="512" xmlns="http://www.w3.org/2000/svg"><path d="m242 108.674c7.719 0 14-6.281 14-14s-6.281-14-14-14-14 6.281-14 14 6.281 14 14 14zm0-20c3.309 0 6 2.691 6 6s-2.691 6-6 6-6-2.691-6-6 2.691-6 6-6z"/><path d="m64 42.674c0-7.719-6.281-14-14-14s-14 6.281-14 14 6.281 14 14 14 14-6.281 14-14zm-20 0c0-3.309 2.691-6 6-6s6 2.691 6 6-2.691 6-6 6-6-2.692-6-6z"/><path d="m243.332 47.003c2.391-.736 3.733-3.27 2.997-5.661-.735-2.391-3.27-3.733-5.661-2.998-2.391.736-3.733 3.27-2.997 5.661.735 2.391 3.27 3.734 5.661 2.998z"/><path d="m48.668 86.344c-2.391.736-3.733 3.27-2.997 5.661.735 2.391 3.27 3.733 5.661 2.997s3.733-3.27 2.997-5.661c-.735-2.39-3.27-3.732-5.661-2.997z"/><path d="m170.329 89.342c-.735-2.391-3.27-3.733-5.661-2.998-2.391.736-3.733 3.27-2.997 5.661.735 2.391 3.27 3.733 5.661 2.997 2.391-.735 3.733-3.269 2.997-5.66z"/><path d="m165.824 48.85c.781.781 1.805 1.172 2.828 1.172s2.047-.391 2.828-1.172l4.52-4.52 4.52 4.52c.781.781 1.805 1.172 2.828 1.172s2.047-.391 2.828-1.172c1.562-1.562 1.562-4.094 0-5.656l-4.52-4.52 4.52-4.52c1.562-1.562 1.562-4.094 0-5.656s-4.094-1.562-5.656 0l-4.52 4.52-4.52-4.52c-1.562-1.562-4.094-1.562-5.656 0s-1.562 4.094 0 5.656l4.52 4.52-4.52 4.52c-1.562 1.562-1.562 4.093 0 5.656z"/><path d="m140 132.788v-52.024-24.09c0-2.211-1.789-4-4-4h-56c-2.211 0-4 1.789-4 4v22.791l-27.879 42.064c-2.695 4.059-4.121 8.785-4.121 13.664 0 9.441 5.496 18.188 13.996 22.281l6.004 2.895v83.18c0 7.238 5.887 13.125 13.125 13.125h61.75c7.238 0 13.125-5.887 13.125-13.125v-97.75c0-6.853-5.295-12.43-12-13.011zm-8-72.114v16.083l-48-.077v-16.006zm-70.531 89.594c-5.75-2.77-9.469-8.688-9.469-15.074 0-3.301.965-6.496 2.789-9.242l27.299-41.188h49.912v47.91h-20v-27.816c0-2.211-1.789-4-4-4s-4 1.789-4 4v37.816c0 3.309-2.691 6-6 6s-6-2.691-6-6v-37.816c0-2.211-1.789-4-4-4s-4 1.789-4 4v27.816h-6.875c-7.238 0-13.125 5.887-13.125 13.125v5.689zm82.531 93.281c0 2.824-2.301 5.125-5.125 5.125h-61.75c-2.824 0-5.125-2.301-5.125-5.125v-97.75c0-2.824 2.301-5.125 5.125-5.125h6.875v2c0 7.719 6.281 14 14 14s14-6.281 14-14v-2h26.875c2.824 0 5.125 2.301 5.125 5.125z"/><path d="m239.442 132.744c-2.569-15.886-16.342-28.07-32.942-28.07-18.422 0-33.41 14.988-33.41 33.41 0 6.312 1.792 12.198 4.846 17.238-.225.267-.469.516-.623.848-8.27 17.809-11.297 30.023-9.242 37.324l6.395 51.582c.134 1.091.721 2.004 1.535 2.636v20.961c0 2.211 1.789 4 4 4h72c2.211 0 4-1.789 4-4v-24.09-24.156c0-14.625-3.391-29.301-9.805-42.445-.018-.037-.053-.058-.072-.094l-2.792-9.215h16.668c2.211 0 4-1.789 4-4v-6.719c0-13.689-10.956-24.841-24.558-25.21zm-32.942-20.07c14.012 0 25.41 11.398 25.41 25.41 0 .526-.106 1.036-.138 1.557-1.16-.895-2.456-1.603-3.851-2.104-.298-11.585-9.765-20.929-21.421-20.929-11.844 0-21.477 9.633-21.477 21.477s9.633 21.477 21.477 21.477c.981 0 1.956-.089 2.923-.221l.297 3.864c-1.066.135-2.13.287-3.22.287-14.012 0-25.41-11.398-25.41-25.406 0-14.014 11.398-25.412 25.41-25.412zm6.113 28.566c-2.531 2.733-3.84 6.378-3.735 10.088-.784.14-1.576.232-2.378.232-7.43 0-13.477-6.047-13.477-13.477s6.047-13.477 13.477-13.477c7.081 0 12.842 5.511 13.374 12.458-2.761.64-5.31 2.07-7.261 4.176zm-28.613 123.434v-16.09h64v16.09zm64-24.09h-66.031l-6-48.402c-.027-.238-.078-.473-.152-.703-.704-2.254-1.277-9.565 7.572-29.327 6.007 5.77 14.144 9.339 23.112 9.339 1.29 0 2.57-.099 3.839-.245l1.673 21.737c.16 2.098 1.914 3.691 3.984 3.691.102 0 .207-.004.312-.012 2.199-.168 3.848-2.094 3.68-4.297l-3.152-40.965c-.133-1.754.449-3.434 1.645-4.723 1.199-1.293 2.824-2.004 4.586-2.004 2.773 0 5.172 1.781 5.977 4.434l11.129 36.727c.279.919.893 1.62 1.634 2.117 4.043 10.319 6.192 21.409 6.192 32.477zm8-79.91h-15.093l-3.24-10.694c.042-.091.118-.153.154-.248 1.07-2.874 1.722-5.866 1.969-8.919 9.018.548 16.21 7.988 16.21 17.141z"/><path d="m81.449 147.433c-1.691 0-3.061 1.371-3.061 3.061s1.371 3.062 3.061 3.062c1.691 0 3.062-1.371 3.062-3.062s-1.371-3.061-3.062-3.061z"/><path d="m132.939 236.428c-1.691 0-3.062 1.371-3.062 3.062s1.371 3.061 3.062 3.061 3.061-1.371 3.061-3.061c0-1.691-1.371-3.062-3.061-3.062z"/><path d="m120.605 185.17c.141-.727.211-1.465.211-2.215 0-6.812-5.824-12.352-12.98-12.352s-12.98 5.539-12.98 12.352c0 .75.07 1.488.211 2.215-4.371 1.988-7.395 6.238-7.395 11.148 0 6.812 5.824 12.355 12.98 12.355 1.182 0 2.331-.17 3.438-.46v5.495c0 2.211 1.789 4 4 4s4-1.789 4-4v-5.386c.952.21 1.926.351 2.93.351 7.156 0 12.98-5.543 12.98-12.355 0-4.91-3.023-9.16-7.395-11.148zm-5.585 15.504c-1.106 0-2.132-.341-2.986-.925-.151-2.073-1.832-3.719-3.944-3.719-1.934 0-3.469 1.396-3.842 3.219-.944.897-2.207 1.426-3.595 1.426-2.746 0-4.98-1.953-4.98-4.355 0-2.367 2.176-4.301 4.875-4.352 1.73.117 3.078-.844 3.762-2.281.664-1.395.461-3.047-.512-4.242-.43-.527-.941-1.383-.941-2.488 0-2.398 2.234-4.352 4.98-4.352s4.98 1.953 4.98 4.352c0 1.102-.512 1.965-.945 2.492-.973 1.199-1.168 2.848-.508 4.242.684 1.438 2.031 2.387 3.762 2.277 2.699.051 4.875 1.984 4.875 4.352-.001 2.401-2.235 4.354-4.981 4.354z"/></svg>